<mxfile host="app.diagrams.net" modified="2020-08-16T21:38:22.977Z" agent="5.0 (Windows)" etag="uI8kd1U02KnIpH8vkZ_J" version="13.6.2" type="github">
  <diagram id="C5RBs43oDa-KdzZeNtuy" name="Page-1">
    <mxGraphModel dx="1422" dy="763" grid="0" gridSize="10" guides="1" tooltips="1" connect="1" arrows="1" fold="1" page="1" pageScale="1" pageWidth="827" pageHeight="1169" background="none" math="0" shadow="0">
      <root>
        <mxCell id="WIyWlLk6GJQsqaUBKTNV-0" />
        <mxCell id="WIyWlLk6GJQsqaUBKTNV-1" parent="WIyWlLk6GJQsqaUBKTNV-0" />
        <mxCell id="WIyWlLk6GJQsqaUBKTNV-2" value="" style="rounded=0;html=1;jettySize=auto;orthogonalLoop=1;fontSize=11;endArrow=block;endFill=0;endSize=8;strokeWidth=1;shadow=0;labelBackgroundColor=none;edgeStyle=orthogonalEdgeStyle;" parent="WIyWlLk6GJQsqaUBKTNV-1" edge="1">
          <mxGeometry relative="1" as="geometry">
            <mxPoint x="620" y="90" as="sourcePoint" />
            <mxPoint x="620" y="140" as="targetPoint" />
          </mxGeometry>
        </mxCell>
        <mxCell id="X7Ppft-jQ7yApB3Ie5x3-0" value="" style="ellipse;whiteSpace=wrap;html=1;fillColor=#f8cecc;strokeColor=#b85450;" vertex="1" parent="WIyWlLk6GJQsqaUBKTNV-1">
          <mxGeometry x="560" y="10" width="120" height="80" as="geometry" />
        </mxCell>
        <mxCell id="X7Ppft-jQ7yApB3Ie5x3-2" value="Print &quot;Welcome&quot; message" style="shape=parallelogram;perimeter=parallelogramPerimeter;whiteSpace=wrap;html=1;fixedSize=1;fillColor=#e1d5e7;strokeColor=#9673a6;" vertex="1" parent="WIyWlLk6GJQsqaUBKTNV-1">
          <mxGeometry x="520" y="150" width="195" height="70" as="geometry" />
        </mxCell>
        <mxCell id="X7Ppft-jQ7yApB3Ie5x3-4" value="" style="shape=parallelogram;perimeter=parallelogramPerimeter;whiteSpace=wrap;html=1;fixedSize=1;fillColor=#e1d5e7;strokeColor=#9673a6;" vertex="1" parent="WIyWlLk6GJQsqaUBKTNV-1">
          <mxGeometry x="516.25" y="290" width="202.5" height="70" as="geometry" />
        </mxCell>
        <mxCell id="X7Ppft-jQ7yApB3Ie5x3-5" value="Start" style="text;html=1;strokeColor=none;fillColor=none;align=center;verticalAlign=middle;whiteSpace=wrap;rounded=0;fontStyle=1" vertex="1" parent="WIyWlLk6GJQsqaUBKTNV-1">
          <mxGeometry x="600" y="40" width="40" height="20" as="geometry" />
        </mxCell>
        <mxCell id="X7Ppft-jQ7yApB3Ie5x3-15" value="" style="rounded=0;html=1;jettySize=auto;orthogonalLoop=1;fontSize=11;endArrow=block;endFill=0;endSize=8;strokeWidth=1;shadow=0;labelBackgroundColor=none;edgeStyle=orthogonalEdgeStyle;" edge="1" parent="WIyWlLk6GJQsqaUBKTNV-1">
          <mxGeometry relative="1" as="geometry">
            <mxPoint x="617" y="220" as="sourcePoint" />
            <mxPoint x="617" y="270" as="targetPoint" />
            <Array as="points">
              <mxPoint x="617" y="230" />
              <mxPoint x="617" y="230" />
            </Array>
          </mxGeometry>
        </mxCell>
        <mxCell id="X7Ppft-jQ7yApB3Ie5x3-16" value="Print&amp;nbsp; &quot;enter company name&quot;" style="text;html=1;strokeColor=none;fillColor=none;align=center;verticalAlign=middle;whiteSpace=wrap;rounded=0;fontColor=#000000;" vertex="1" parent="WIyWlLk6GJQsqaUBKTNV-1">
          <mxGeometry x="535" y="320" width="170" height="20" as="geometry" />
        </mxCell>
        <mxCell id="X7Ppft-jQ7yApB3Ie5x3-17" value="" style="shape=parallelogram;perimeter=parallelogramPerimeter;whiteSpace=wrap;html=1;fixedSize=1;fillColor=#dae8fc;strokeColor=#6c8ebf;" vertex="1" parent="WIyWlLk6GJQsqaUBKTNV-1">
          <mxGeometry x="516.25" y="420" width="200" height="70" as="geometry" />
        </mxCell>
        <mxCell id="X7Ppft-jQ7yApB3Ie5x3-19" value="Input &quot;Company name&quot;" style="text;html=1;strokeColor=none;fillColor=none;align=center;verticalAlign=middle;whiteSpace=wrap;rounded=0;fontColor=#000000;" vertex="1" parent="WIyWlLk6GJQsqaUBKTNV-1">
          <mxGeometry x="540" y="442.5" width="140" height="25" as="geometry" />
        </mxCell>
        <mxCell id="X7Ppft-jQ7yApB3Ie5x3-21" value="" style="rounded=0;html=1;jettySize=auto;orthogonalLoop=1;fontSize=11;endArrow=block;endFill=0;endSize=8;strokeWidth=1;shadow=0;labelBackgroundColor=none;edgeStyle=orthogonalEdgeStyle;" edge="1" parent="WIyWlLk6GJQsqaUBKTNV-1">
          <mxGeometry relative="1" as="geometry">
            <mxPoint x="617" y="360" as="sourcePoint" />
            <mxPoint x="617" y="410" as="targetPoint" />
            <Array as="points">
              <mxPoint x="617" y="370" />
              <mxPoint x="617" y="370" />
            </Array>
          </mxGeometry>
        </mxCell>
        <mxCell id="X7Ppft-jQ7yApB3Ie5x3-22" value="Print &quot;How many feet&quot; message" style="shape=parallelogram;perimeter=parallelogramPerimeter;whiteSpace=wrap;html=1;fixedSize=1;fillColor=#e1d5e7;strokeColor=#9673a6;" vertex="1" parent="WIyWlLk6GJQsqaUBKTNV-1">
          <mxGeometry x="516.25" y="550" width="195" height="70" as="geometry" />
        </mxCell>
        <mxCell id="X7Ppft-jQ7yApB3Ie5x3-23" value="" style="shape=parallelogram;perimeter=parallelogramPerimeter;whiteSpace=wrap;html=1;fixedSize=1;fillColor=#dae8fc;strokeColor=#6c8ebf;" vertex="1" parent="WIyWlLk6GJQsqaUBKTNV-1">
          <mxGeometry x="515" y="680" width="200" height="70" as="geometry" />
        </mxCell>
        <mxCell id="X7Ppft-jQ7yApB3Ie5x3-24" value="Input &quot;number of feet&quot;" style="text;html=1;strokeColor=none;fillColor=none;align=center;verticalAlign=middle;whiteSpace=wrap;rounded=0;fontColor=#000000;" vertex="1" parent="WIyWlLk6GJQsqaUBKTNV-1">
          <mxGeometry x="560" y="705" width="120" height="20" as="geometry" />
        </mxCell>
        <mxCell id="X7Ppft-jQ7yApB3Ie5x3-25" value="" style="rounded=0;html=1;jettySize=auto;orthogonalLoop=1;fontSize=11;endArrow=block;endFill=0;endSize=8;strokeWidth=1;shadow=0;labelBackgroundColor=none;edgeStyle=orthogonalEdgeStyle;" edge="1" parent="WIyWlLk6GJQsqaUBKTNV-1">
          <mxGeometry relative="1" as="geometry">
            <mxPoint x="619.5" y="490" as="sourcePoint" />
            <mxPoint x="619.5" y="540" as="targetPoint" />
            <Array as="points">
              <mxPoint x="619.5" y="500" />
              <mxPoint x="619.5" y="500" />
            </Array>
          </mxGeometry>
        </mxCell>
        <mxCell id="X7Ppft-jQ7yApB3Ie5x3-26" value="" style="rounded=0;html=1;jettySize=auto;orthogonalLoop=1;fontSize=11;endArrow=block;endFill=0;endSize=8;strokeWidth=1;shadow=0;labelBackgroundColor=none;edgeStyle=orthogonalEdgeStyle;" edge="1" parent="WIyWlLk6GJQsqaUBKTNV-1">
          <mxGeometry relative="1" as="geometry">
            <mxPoint x="617" y="620" as="sourcePoint" />
            <mxPoint x="617" y="670" as="targetPoint" />
            <Array as="points">
              <mxPoint x="617" y="630" />
              <mxPoint x="617" y="630" />
            </Array>
          </mxGeometry>
        </mxCell>
        <mxCell id="X7Ppft-jQ7yApB3Ie5x3-27" value="" style="rounded=0;whiteSpace=wrap;html=1;fillColor=#d5e8d4;strokeColor=#82b366;" vertex="1" parent="WIyWlLk6GJQsqaUBKTNV-1">
          <mxGeometry x="516.25" y="810" width="190" height="80" as="geometry" />
        </mxCell>
        <mxCell id="X7Ppft-jQ7yApB3Ie5x3-28" value="&lt;div&gt;Calculation:&lt;/div&gt;&lt;div&gt;Number of feet x 0.87&lt;br&gt;&lt;/div&gt;" style="text;html=1;strokeColor=none;fillColor=none;align=center;verticalAlign=middle;whiteSpace=wrap;rounded=0;fontColor=#000000;" vertex="1" parent="WIyWlLk6GJQsqaUBKTNV-1">
          <mxGeometry x="543.75" y="835" width="140" height="30" as="geometry" />
        </mxCell>
        <mxCell id="X7Ppft-jQ7yApB3Ie5x3-29" value="&lt;div&gt;OUTPUT:&lt;/div&gt;&lt;div&gt;Business name&lt;/div&gt;&lt;div&gt;total cost&lt;br&gt;&lt;/div&gt;" style="shape=parallelogram;perimeter=parallelogramPerimeter;whiteSpace=wrap;html=1;fixedSize=1;fillColor=#e1d5e7;strokeColor=#9673a6;" vertex="1" parent="WIyWlLk6GJQsqaUBKTNV-1">
          <mxGeometry x="513.75" y="950" width="195" height="70" as="geometry" />
        </mxCell>
        <mxCell id="X7Ppft-jQ7yApB3Ie5x3-31" value="" style="rounded=0;html=1;jettySize=auto;orthogonalLoop=1;fontSize=11;endArrow=block;endFill=0;endSize=8;strokeWidth=1;shadow=0;labelBackgroundColor=none;edgeStyle=orthogonalEdgeStyle;" edge="1" parent="WIyWlLk6GJQsqaUBKTNV-1">
          <mxGeometry relative="1" as="geometry">
            <mxPoint x="619.5" y="750" as="sourcePoint" />
            <mxPoint x="619.5" y="800" as="targetPoint" />
            <Array as="points">
              <mxPoint x="619.5" y="760" />
              <mxPoint x="619.5" y="760" />
            </Array>
          </mxGeometry>
        </mxCell>
        <mxCell id="X7Ppft-jQ7yApB3Ie5x3-32" value="" style="rounded=0;html=1;jettySize=auto;orthogonalLoop=1;fontSize=11;endArrow=block;endFill=0;endSize=8;strokeWidth=1;shadow=0;labelBackgroundColor=none;edgeStyle=orthogonalEdgeStyle;" edge="1" parent="WIyWlLk6GJQsqaUBKTNV-1">
          <mxGeometry relative="1" as="geometry">
            <mxPoint x="619.5" y="890" as="sourcePoint" />
            <mxPoint x="619.5" y="940" as="targetPoint" />
            <Array as="points">
              <mxPoint x="619.5" y="900" />
              <mxPoint x="619.5" y="900" />
            </Array>
          </mxGeometry>
        </mxCell>
        <mxCell id="X7Ppft-jQ7yApB3Ie5x3-35" value="" style="ellipse;whiteSpace=wrap;html=1;labelBackgroundColor=none;fillColor=#f8cecc;strokeColor=#b85450;" vertex="1" parent="WIyWlLk6GJQsqaUBKTNV-1">
          <mxGeometry x="560" y="1080" width="120" height="80" as="geometry" />
        </mxCell>
        <mxCell id="X7Ppft-jQ7yApB3Ie5x3-36" value="&lt;div&gt;Stop&lt;/div&gt;" style="text;html=1;strokeColor=none;fillColor=none;align=center;verticalAlign=middle;whiteSpace=wrap;rounded=0;labelBackgroundColor=none;fontColor=#000000;" vertex="1" parent="WIyWlLk6GJQsqaUBKTNV-1">
          <mxGeometry x="600" y="1100" width="40" height="20" as="geometry" />
        </mxCell>
        <mxCell id="X7Ppft-jQ7yApB3Ie5x3-37" value="" style="rounded=0;html=1;jettySize=auto;orthogonalLoop=1;fontSize=11;endArrow=block;endFill=0;endSize=8;strokeWidth=1;shadow=0;labelBackgroundColor=none;edgeStyle=orthogonalEdgeStyle;" edge="1" parent="WIyWlLk6GJQsqaUBKTNV-1">
          <mxGeometry relative="1" as="geometry">
            <mxPoint x="619.5" y="1020" as="sourcePoint" />
            <mxPoint x="619.5" y="1070" as="targetPoint" />
            <Array as="points">
              <mxPoint x="619.5" y="1030" />
              <mxPoint x="619.5" y="1030" />
            </Array>
          </mxGeometry>
        </mxCell>
        <mxCell id="X7Ppft-jQ7yApB3Ie5x3-39" value="&lt;div&gt;&lt;br&gt;&lt;/div&gt;&lt;div&gt;Juan Nevarez&lt;/div&gt;&lt;div&gt;CIS245&lt;/div&gt;&lt;div&gt;Assignment 1.3&lt;br&gt;&lt;/div&gt;&lt;div&gt;&lt;br&gt;&lt;/div&gt;&lt;p&gt;Create a flowchart and write pseudocode for the following steps:&amp;nbsp;&lt;/p&gt; &lt;br&gt;    &lt;ol&gt;&lt;li&gt;Display a welcome message for your program.&amp;nbsp;&lt;/li&gt;&lt;li&gt;Get the company name from the user.&lt;/li&gt;&lt;li&gt;Get the number of feet of fiber optic to be installed from the user.&lt;/li&gt;&lt;li&gt;Multiply the total cost as the number of feet times $0.87.&lt;/li&gt;&lt;li&gt;Display the calculated information and company name.&lt;/li&gt;&lt;/ol&gt;" style="text;html=1;strokeColor=none;fillColor=none;spacing=5;spacingTop=-20;whiteSpace=wrap;overflow=hidden;rounded=0;labelBackgroundColor=none;fontColor=#000000;" vertex="1" parent="WIyWlLk6GJQsqaUBKTNV-1">
          <mxGeometry x="98" y="120" width="365" height="242" as="geometry" />
        </mxCell>
      </root>
    </mxGraphModel>
  </diagram>
</mxfile>
